<svg xmlns="http://www.w3.org/2000/svg" xmlns:xlink="http://www.w3.org/1999/xlink" fill="none" version="1.1" width="1024" height="1024" viewBox="0 0 1024 1024"><rect x="0" y="0" width="1024" height="1024" rx="0" fill="#FFFFFF" fill-opacity="0"/><path d="M681.601561171875,567.172026328125C748.164181171875,567.172026328125,844.546931171875,553.330966328125,844.546931171875,474.011166328125C844.543821171875,467.942866328125,844.009281171875,461.886446328125,842.949401171875,455.911316328125L803.544371171875,283.430736328125C794.491881171875,245.63405632812498,786.504331171875,228.066586328125,719.941711171875,195.061027328125C668.289001171875,168.443645328125,555.931271171875,125.323486328125,522.383731171875,125.323486328125C490.966121171875,125.323486328125,481.913571171875,165.249561328125,445.171021171875,165.249561328125C409.493411171875,165.249561328125,383.400881171875,135.438091328125,349.853301171875,135.438091328125C317.903201171875,135.438091328125,297.135621171875,157.264347328125,281.160611171875,201.98154432812498C281.160611171875,201.98154432812498,236.430501171875,328.147936328125,230.572981171875,346.780116328125C229.693101171875,350.075606328125,229.333771171875,353.488316328125,229.507961171875,356.894716328125C228.975481171875,405.870666328125,422.273441171875,566.639676328125,681.601561171875,567.172026328125ZM854.664551171875,506.484376328125C863.717041171875,550.136876328125,863.717041171875,554.928006328125,863.717041171875,560.251496328125C863.717041171875,634.780156328125,780.114321171875,676.303226328125,669.886601171875,676.303226328125C420.675931171875,676.303286328125,202.882921171875,530.440066328125,202.882921171875,434.085116328125C202.858441171875,420.721496328125,205.577031171875,407.494966328125,210.870451171875,395.223756328125C121.410231171875,399.482516328125,5.324951171875,415.452946328125,5.324951171875,517.663726328125C5.324951171875,685.353276328125,402.570921171875,891.904116328125,716.746641171875,891.904116328125C957.969731171875,891.904116328125,1018.674851171875,782.772886328125,1018.674851171875,696.532596328125C1018.674851171875,628.924436328125,960.099731171875,552.2663563281251,854.664551171875,506.484376328125Z" fill="#00FF00" fill-opacity="1"/><path d="M854.6644925,506.484329296875C863.7169825,550.136829296875,863.7169825,554.927959296875,863.7169825,560.251449296875C863.7169825,634.780119296875,780.1143225,676.303249296875,669.8865625000001,676.303249296875C420.67598250000003,676.303219296875,202.88297500651,530.439969296875,202.88297500651,434.085037296875C202.858497465,420.721412296875,205.5770686,407.494884296875,210.8704948,395.223659296875L230.5730475,346.780029296875C229.6931555,350.075522696875,229.3338125,353.488230696875,229.5080415,356.894643296875C229.5080415,405.870632296875,422.8059825,566.639589296875,681.6016225000001,566.639589296875C748.1642425,566.639589296875,844.5469925,552.798549296875,844.5469925,473.478749296875C844.5438225,467.410439296875,844.0093425,461.354029296875,842.9494625,455.378949296875L854.6644925,506.484329296875Z" fill="#000000" fill-opacity="1"/></svg>